<mxfile host="app.diagrams.net" modified="2020-08-08T14:36:35.572Z" agent="5.0 (Windows NT 10.0; Win64; x64) AppleWebKit/537.36 (KHTML, like Gecko) Chrome/84.0.4147.105 Safari/537.36" etag="9CXbHO6AbcpInisYxEXV" version="13.5.7" type="github">
  <diagram id="R2lEEEUBdFMjLlhIrx00" name="Page-1">
    <mxGraphModel dx="1422" dy="762" grid="1" gridSize="10" guides="1" tooltips="1" connect="1" arrows="1" fold="1" page="1" pageScale="1" pageWidth="850" pageHeight="1100" math="0" shadow="0" extFonts="Permanent Marker^https://fonts.googleapis.com/css?family=Permanent+Marker">
      <root>
        <mxCell id="0" />
        <mxCell id="1" parent="0" />
        <mxCell id="5_3OHiq5LRFeyWZVgvLZ-47" value="" style="edgeStyle=entityRelationEdgeStyle;fontSize=12;html=1;endArrow=ERmandOne;startArrow=ERmandOne;exitX=1;exitY=0.75;exitDx=0;exitDy=0;" edge="1" parent="1" source="5_3OHiq5LRFeyWZVgvLZ-53" target="5_3OHiq5LRFeyWZVgvLZ-32">
          <mxGeometry width="100" height="100" relative="1" as="geometry">
            <mxPoint x="240" y="600" as="sourcePoint" />
            <mxPoint x="500" y="330" as="targetPoint" />
          </mxGeometry>
        </mxCell>
        <mxCell id="5_3OHiq5LRFeyWZVgvLZ-79" value="" style="group" vertex="1" connectable="0" parent="1">
          <mxGeometry x="60" y="20" width="210" height="720" as="geometry" />
        </mxCell>
        <mxCell id="5_3OHiq5LRFeyWZVgvLZ-48" value="" style="group" vertex="1" connectable="0" parent="5_3OHiq5LRFeyWZVgvLZ-79">
          <mxGeometry width="210" height="720" as="geometry" />
        </mxCell>
        <mxCell id="5_3OHiq5LRFeyWZVgvLZ-49" value="" style="group" vertex="1" connectable="0" parent="5_3OHiq5LRFeyWZVgvLZ-48">
          <mxGeometry y="90" width="210" height="630" as="geometry" />
        </mxCell>
        <mxCell id="5_3OHiq5LRFeyWZVgvLZ-50" value="City" style="shape=partialRectangle;connectable=0;fillColor=none;top=0;left=0;bottom=0;right=0;align=left;spacingLeft=6;overflow=hidden;" vertex="1" parent="5_3OHiq5LRFeyWZVgvLZ-49">
          <mxGeometry x="30" y="150" width="150" height="30" as="geometry" />
        </mxCell>
        <mxCell id="5_3OHiq5LRFeyWZVgvLZ-97" value="" style="shape=table;startSize=0;container=1;collapsible=1;childLayout=tableLayout;fixedRows=1;rowLines=0;fontStyle=0;align=center;resizeLast=1;strokeColor=none;fillColor=none;" vertex="1" parent="5_3OHiq5LRFeyWZVgvLZ-49">
          <mxGeometry x="30" y="300" width="150" height="30" as="geometry" />
        </mxCell>
        <mxCell id="5_3OHiq5LRFeyWZVgvLZ-98" value="" style="shape=partialRectangle;collapsible=0;dropTarget=0;pointerEvents=0;fillColor=none;top=0;left=0;bottom=0;right=0;points=[[0,0.5],[1,0.5]];portConstraint=eastwest;" vertex="1" parent="5_3OHiq5LRFeyWZVgvLZ-97">
          <mxGeometry width="150" height="30" as="geometry" />
        </mxCell>
        <mxCell id="5_3OHiq5LRFeyWZVgvLZ-99" value="" style="shape=partialRectangle;connectable=0;fillColor=none;top=0;left=0;bottom=0;right=0;editable=1;overflow=hidden;" vertex="1" parent="5_3OHiq5LRFeyWZVgvLZ-98">
          <mxGeometry width="30" height="30" as="geometry" />
        </mxCell>
        <mxCell id="5_3OHiq5LRFeyWZVgvLZ-100" value="Email address" style="shape=partialRectangle;connectable=0;fillColor=none;top=0;left=0;bottom=0;right=0;align=left;spacingLeft=6;overflow=hidden;" vertex="1" parent="5_3OHiq5LRFeyWZVgvLZ-98">
          <mxGeometry x="30" width="120" height="30" as="geometry" />
        </mxCell>
        <mxCell id="5_3OHiq5LRFeyWZVgvLZ-51" value="" style="group" vertex="1" connectable="0" parent="5_3OHiq5LRFeyWZVgvLZ-49">
          <mxGeometry width="180" height="630" as="geometry" />
        </mxCell>
        <mxCell id="5_3OHiq5LRFeyWZVgvLZ-52" value="" style="group" vertex="1" connectable="0" parent="5_3OHiq5LRFeyWZVgvLZ-51">
          <mxGeometry width="180" height="629.9999999999999" as="geometry" />
        </mxCell>
        <mxCell id="5_3OHiq5LRFeyWZVgvLZ-53" value="Costumer" style="shape=table;startSize=30;container=1;collapsible=1;childLayout=tableLayout;fixedRows=1;rowLines=0;fontStyle=1;align=center;resizeLast=1;" vertex="1" parent="5_3OHiq5LRFeyWZVgvLZ-52">
          <mxGeometry width="180" height="659.9999999999999" as="geometry" />
        </mxCell>
        <mxCell id="5_3OHiq5LRFeyWZVgvLZ-54" value="" style="shape=partialRectangle;collapsible=0;dropTarget=0;pointerEvents=0;fillColor=none;top=0;left=0;bottom=1;right=0;points=[[0,0.5],[1,0.5]];portConstraint=eastwest;" vertex="1" parent="5_3OHiq5LRFeyWZVgvLZ-53">
          <mxGeometry y="30" width="180" height="30" as="geometry" />
        </mxCell>
        <mxCell id="5_3OHiq5LRFeyWZVgvLZ-55" value="PK" style="shape=partialRectangle;connectable=0;fillColor=none;top=0;left=0;bottom=0;right=0;fontStyle=1;overflow=hidden;" vertex="1" parent="5_3OHiq5LRFeyWZVgvLZ-54">
          <mxGeometry width="30" height="30" as="geometry" />
        </mxCell>
        <mxCell id="5_3OHiq5LRFeyWZVgvLZ-56" value="CostumerID" style="shape=partialRectangle;connectable=0;fillColor=none;top=0;left=0;bottom=0;right=0;align=left;spacingLeft=6;fontStyle=5;overflow=hidden;" vertex="1" parent="5_3OHiq5LRFeyWZVgvLZ-54">
          <mxGeometry x="30" width="150" height="30" as="geometry" />
        </mxCell>
        <mxCell id="5_3OHiq5LRFeyWZVgvLZ-57" value="" style="shape=partialRectangle;collapsible=0;dropTarget=0;pointerEvents=0;fillColor=none;top=0;left=0;bottom=0;right=0;points=[[0,0.5],[1,0.5]];portConstraint=eastwest;" vertex="1" parent="5_3OHiq5LRFeyWZVgvLZ-53">
          <mxGeometry y="60" width="180" height="30" as="geometry" />
        </mxCell>
        <mxCell id="5_3OHiq5LRFeyWZVgvLZ-58" value="" style="shape=partialRectangle;connectable=0;fillColor=none;top=0;left=0;bottom=0;right=0;editable=1;overflow=hidden;" vertex="1" parent="5_3OHiq5LRFeyWZVgvLZ-57">
          <mxGeometry width="30" height="30" as="geometry" />
        </mxCell>
        <mxCell id="5_3OHiq5LRFeyWZVgvLZ-59" value="FirstName" style="shape=partialRectangle;connectable=0;fillColor=none;top=0;left=0;bottom=0;right=0;align=left;spacingLeft=6;overflow=hidden;" vertex="1" parent="5_3OHiq5LRFeyWZVgvLZ-57">
          <mxGeometry x="30" width="150" height="30" as="geometry" />
        </mxCell>
        <mxCell id="5_3OHiq5LRFeyWZVgvLZ-60" value="" style="shape=partialRectangle;collapsible=0;dropTarget=0;pointerEvents=0;fillColor=none;top=0;left=0;bottom=0;right=0;points=[[0,0.5],[1,0.5]];portConstraint=eastwest;" vertex="1" parent="5_3OHiq5LRFeyWZVgvLZ-53">
          <mxGeometry y="90" width="180" height="30" as="geometry" />
        </mxCell>
        <mxCell id="5_3OHiq5LRFeyWZVgvLZ-61" value="" style="shape=partialRectangle;connectable=0;fillColor=none;top=0;left=0;bottom=0;right=0;editable=1;overflow=hidden;" vertex="1" parent="5_3OHiq5LRFeyWZVgvLZ-60">
          <mxGeometry width="30" height="30" as="geometry" />
        </mxCell>
        <mxCell id="5_3OHiq5LRFeyWZVgvLZ-62" value="LastName" style="shape=partialRectangle;connectable=0;fillColor=none;top=0;left=0;bottom=0;right=0;align=left;spacingLeft=6;overflow=hidden;" vertex="1" parent="5_3OHiq5LRFeyWZVgvLZ-60">
          <mxGeometry x="30" width="150" height="30" as="geometry" />
        </mxCell>
        <mxCell id="5_3OHiq5LRFeyWZVgvLZ-63" value="" style="shape=partialRectangle;collapsible=0;dropTarget=0;pointerEvents=0;fillColor=none;top=0;left=0;bottom=0;right=0;points=[[0,0.5],[1,0.5]];portConstraint=eastwest;" vertex="1" parent="5_3OHiq5LRFeyWZVgvLZ-53">
          <mxGeometry y="120" width="180" height="30" as="geometry" />
        </mxCell>
        <mxCell id="5_3OHiq5LRFeyWZVgvLZ-64" value="" style="shape=partialRectangle;connectable=0;fillColor=none;top=0;left=0;bottom=0;right=0;editable=1;overflow=hidden;" vertex="1" parent="5_3OHiq5LRFeyWZVgvLZ-63">
          <mxGeometry width="30" height="30" as="geometry" />
        </mxCell>
        <mxCell id="5_3OHiq5LRFeyWZVgvLZ-65" value="Zipcode" style="shape=partialRectangle;connectable=0;fillColor=none;top=0;left=0;bottom=0;right=0;align=left;spacingLeft=6;overflow=hidden;" vertex="1" parent="5_3OHiq5LRFeyWZVgvLZ-63">
          <mxGeometry x="30" width="150" height="30" as="geometry" />
        </mxCell>
        <mxCell id="5_3OHiq5LRFeyWZVgvLZ-94" value="" style="shape=partialRectangle;collapsible=0;dropTarget=0;pointerEvents=0;fillColor=none;top=0;left=0;bottom=0;right=0;points=[[0,0.5],[1,0.5]];portConstraint=eastwest;" vertex="1" parent="5_3OHiq5LRFeyWZVgvLZ-53">
          <mxGeometry y="150" width="180" height="30" as="geometry" />
        </mxCell>
        <mxCell id="5_3OHiq5LRFeyWZVgvLZ-95" value="" style="shape=partialRectangle;connectable=0;fillColor=none;top=0;left=0;bottom=0;right=0;editable=1;overflow=hidden;" vertex="1" parent="5_3OHiq5LRFeyWZVgvLZ-94">
          <mxGeometry width="30" height="30" as="geometry" />
        </mxCell>
        <mxCell id="5_3OHiq5LRFeyWZVgvLZ-96" value="Row" style="shape=partialRectangle;connectable=0;fillColor=none;top=0;left=0;bottom=0;right=0;align=left;spacingLeft=6;overflow=hidden;" vertex="1" parent="5_3OHiq5LRFeyWZVgvLZ-94">
          <mxGeometry x="30" width="150" height="30" as="geometry" />
        </mxCell>
        <mxCell id="5_3OHiq5LRFeyWZVgvLZ-66" value="" style="group" vertex="1" connectable="0" parent="5_3OHiq5LRFeyWZVgvLZ-52">
          <mxGeometry x="30" y="383.13779220779224" width="150" height="195.43363636363637" as="geometry" />
        </mxCell>
        <mxCell id="5_3OHiq5LRFeyWZVgvLZ-67" value="Rank" style="shape=partialRectangle;connectable=0;fillColor=none;top=0;left=0;bottom=0;right=0;align=left;spacingLeft=6;overflow=hidden;" vertex="1" parent="5_3OHiq5LRFeyWZVgvLZ-66">
          <mxGeometry width="150" height="57.272727272727266" as="geometry" />
        </mxCell>
        <mxCell id="5_3OHiq5LRFeyWZVgvLZ-68" value="UID" style="shape=partialRectangle;connectable=0;fillColor=none;top=0;left=0;bottom=0;right=0;align=left;spacingLeft=6;overflow=hidden;" vertex="1" parent="5_3OHiq5LRFeyWZVgvLZ-66">
          <mxGeometry y="57.278571428571375" width="150" height="57.272727272727266" as="geometry" />
        </mxCell>
        <mxCell id="5_3OHiq5LRFeyWZVgvLZ-69" value="LastModified" style="shape=partialRectangle;connectable=0;fillColor=none;top=0;left=0;bottom=0;right=0;align=left;spacingLeft=6;overflow=hidden;" vertex="1" parent="5_3OHiq5LRFeyWZVgvLZ-66">
          <mxGeometry y="118.29077922077923" width="150" height="38.57142857142858" as="geometry" />
        </mxCell>
        <mxCell id="5_3OHiq5LRFeyWZVgvLZ-78" value="Address" style="shape=partialRectangle;connectable=0;fillColor=none;top=0;left=0;bottom=0;right=0;align=left;spacingLeft=6;overflow=hidden;" vertex="1" parent="5_3OHiq5LRFeyWZVgvLZ-66">
          <mxGeometry y="156.8622077922078" width="150" height="38.57142857142858" as="geometry" />
        </mxCell>
        <mxCell id="5_3OHiq5LRFeyWZVgvLZ-70" value="Country" style="shape=partialRectangle;connectable=0;fillColor=none;top=0;left=0;bottom=0;right=0;align=left;spacingLeft=6;overflow=hidden;" vertex="1" parent="5_3OHiq5LRFeyWZVgvLZ-49">
          <mxGeometry x="30" y="180.00454545454545" width="150" height="40.90909090909091" as="geometry" />
        </mxCell>
        <mxCell id="5_3OHiq5LRFeyWZVgvLZ-71" value="DayOfBirth" style="shape=partialRectangle;connectable=0;fillColor=none;top=0;left=0;bottom=0;right=0;align=left;spacingLeft=6;overflow=hidden;" vertex="1" parent="5_3OHiq5LRFeyWZVgvLZ-49">
          <mxGeometry x="30" y="210" width="150" height="40.90909090909091" as="geometry" />
        </mxCell>
        <mxCell id="5_3OHiq5LRFeyWZVgvLZ-72" value="Telefon Number" style="shape=partialRectangle;connectable=0;fillColor=none;top=0;left=0;bottom=0;right=0;align=left;spacingLeft=6;overflow=hidden;" vertex="1" parent="5_3OHiq5LRFeyWZVgvLZ-49">
          <mxGeometry x="30" y="250.90606060606058" width="150" height="44.54545454545454" as="geometry" />
        </mxCell>
        <mxCell id="5_3OHiq5LRFeyWZVgvLZ-31" value="UserTable" style="shape=table;startSize=30;container=1;collapsible=1;childLayout=tableLayout;fixedRows=1;rowLines=0;fontStyle=1;align=center;resizeLast=1;" vertex="1" parent="1">
          <mxGeometry x="570" y="130" width="180" height="300" as="geometry" />
        </mxCell>
        <mxCell id="5_3OHiq5LRFeyWZVgvLZ-32" value="" style="shape=partialRectangle;collapsible=0;dropTarget=0;pointerEvents=0;fillColor=none;top=0;left=0;bottom=1;right=0;points=[[0,0.5],[1,0.5]];portConstraint=eastwest;" vertex="1" parent="5_3OHiq5LRFeyWZVgvLZ-31">
          <mxGeometry y="30" width="180" height="30" as="geometry" />
        </mxCell>
        <mxCell id="5_3OHiq5LRFeyWZVgvLZ-33" value="PK" style="shape=partialRectangle;connectable=0;fillColor=none;top=0;left=0;bottom=0;right=0;fontStyle=1;overflow=hidden;" vertex="1" parent="5_3OHiq5LRFeyWZVgvLZ-32">
          <mxGeometry width="30" height="30" as="geometry" />
        </mxCell>
        <mxCell id="5_3OHiq5LRFeyWZVgvLZ-34" value="UID" style="shape=partialRectangle;connectable=0;fillColor=none;top=0;left=0;bottom=0;right=0;align=left;spacingLeft=6;fontStyle=5;overflow=hidden;" vertex="1" parent="5_3OHiq5LRFeyWZVgvLZ-32">
          <mxGeometry x="30" width="150" height="30" as="geometry" />
        </mxCell>
        <mxCell id="5_3OHiq5LRFeyWZVgvLZ-35" value="" style="shape=partialRectangle;collapsible=0;dropTarget=0;pointerEvents=0;fillColor=none;top=0;left=0;bottom=0;right=0;points=[[0,0.5],[1,0.5]];portConstraint=eastwest;" vertex="1" parent="5_3OHiq5LRFeyWZVgvLZ-31">
          <mxGeometry y="60" width="180" height="30" as="geometry" />
        </mxCell>
        <mxCell id="5_3OHiq5LRFeyWZVgvLZ-36" value="" style="shape=partialRectangle;connectable=0;fillColor=none;top=0;left=0;bottom=0;right=0;editable=1;overflow=hidden;" vertex="1" parent="5_3OHiq5LRFeyWZVgvLZ-35">
          <mxGeometry width="30" height="30" as="geometry" />
        </mxCell>
        <mxCell id="5_3OHiq5LRFeyWZVgvLZ-37" value="UserName (F+LName)" style="shape=partialRectangle;connectable=0;fillColor=none;top=0;left=0;bottom=0;right=0;align=left;spacingLeft=6;overflow=hidden;" vertex="1" parent="5_3OHiq5LRFeyWZVgvLZ-35">
          <mxGeometry x="30" width="150" height="30" as="geometry" />
        </mxCell>
        <mxCell id="5_3OHiq5LRFeyWZVgvLZ-38" value="" style="shape=partialRectangle;collapsible=0;dropTarget=0;pointerEvents=0;fillColor=none;top=0;left=0;bottom=0;right=0;points=[[0,0.5],[1,0.5]];portConstraint=eastwest;" vertex="1" parent="5_3OHiq5LRFeyWZVgvLZ-31">
          <mxGeometry y="90" width="180" height="30" as="geometry" />
        </mxCell>
        <mxCell id="5_3OHiq5LRFeyWZVgvLZ-39" value="" style="shape=partialRectangle;connectable=0;fillColor=none;top=0;left=0;bottom=0;right=0;editable=1;overflow=hidden;" vertex="1" parent="5_3OHiq5LRFeyWZVgvLZ-38">
          <mxGeometry width="30" height="30" as="geometry" />
        </mxCell>
        <mxCell id="5_3OHiq5LRFeyWZVgvLZ-40" value="Active" style="shape=partialRectangle;connectable=0;fillColor=none;top=0;left=0;bottom=0;right=0;align=left;spacingLeft=6;overflow=hidden;" vertex="1" parent="5_3OHiq5LRFeyWZVgvLZ-38">
          <mxGeometry x="30" width="150" height="30" as="geometry" />
        </mxCell>
        <mxCell id="5_3OHiq5LRFeyWZVgvLZ-41" value="" style="shape=partialRectangle;collapsible=0;dropTarget=0;pointerEvents=0;fillColor=none;top=0;left=0;bottom=0;right=0;points=[[0,0.5],[1,0.5]];portConstraint=eastwest;" vertex="1" parent="5_3OHiq5LRFeyWZVgvLZ-31">
          <mxGeometry y="120" width="180" height="30" as="geometry" />
        </mxCell>
        <mxCell id="5_3OHiq5LRFeyWZVgvLZ-42" value="" style="shape=partialRectangle;connectable=0;fillColor=none;top=0;left=0;bottom=0;right=0;editable=1;overflow=hidden;" vertex="1" parent="5_3OHiq5LRFeyWZVgvLZ-41">
          <mxGeometry width="30" height="30" as="geometry" />
        </mxCell>
        <mxCell id="5_3OHiq5LRFeyWZVgvLZ-43" value="LastModified" style="shape=partialRectangle;connectable=0;fillColor=none;top=0;left=0;bottom=0;right=0;align=left;spacingLeft=6;overflow=hidden;" vertex="1" parent="5_3OHiq5LRFeyWZVgvLZ-41">
          <mxGeometry x="30" width="150" height="30" as="geometry" />
        </mxCell>
        <mxCell id="5_3OHiq5LRFeyWZVgvLZ-75" value="" style="shape=partialRectangle;collapsible=0;dropTarget=0;pointerEvents=0;fillColor=none;top=0;left=0;bottom=0;right=0;points=[[0,0.5],[1,0.5]];portConstraint=eastwest;" vertex="1" parent="5_3OHiq5LRFeyWZVgvLZ-31">
          <mxGeometry y="150" width="180" height="30" as="geometry" />
        </mxCell>
        <mxCell id="5_3OHiq5LRFeyWZVgvLZ-76" value="" style="shape=partialRectangle;connectable=0;fillColor=none;top=0;left=0;bottom=0;right=0;editable=1;overflow=hidden;" vertex="1" parent="5_3OHiq5LRFeyWZVgvLZ-75">
          <mxGeometry width="30" height="30" as="geometry" />
        </mxCell>
        <mxCell id="5_3OHiq5LRFeyWZVgvLZ-77" value="TypeOfUser" style="shape=partialRectangle;connectable=0;fillColor=none;top=0;left=0;bottom=0;right=0;align=left;spacingLeft=6;overflow=hidden;" vertex="1" parent="5_3OHiq5LRFeyWZVgvLZ-75">
          <mxGeometry x="30" width="150" height="30" as="geometry" />
        </mxCell>
        <mxCell id="5_3OHiq5LRFeyWZVgvLZ-117" value="" style="group" vertex="1" connectable="0" parent="1">
          <mxGeometry x="310" y="650" width="180" height="460" as="geometry" />
        </mxCell>
        <mxCell id="5_3OHiq5LRFeyWZVgvLZ-80" value="OrderHeader" style="shape=table;startSize=30;container=1;collapsible=1;childLayout=tableLayout;fixedRows=1;rowLines=0;fontStyle=1;align=center;resizeLast=1;" vertex="1" parent="5_3OHiq5LRFeyWZVgvLZ-117">
          <mxGeometry width="180" height="460" as="geometry" />
        </mxCell>
        <mxCell id="5_3OHiq5LRFeyWZVgvLZ-81" value="" style="shape=partialRectangle;collapsible=0;dropTarget=0;pointerEvents=0;fillColor=none;top=0;left=0;bottom=1;right=0;points=[[0,0.5],[1,0.5]];portConstraint=eastwest;" vertex="1" parent="5_3OHiq5LRFeyWZVgvLZ-80">
          <mxGeometry y="30" width="180" height="30" as="geometry" />
        </mxCell>
        <mxCell id="5_3OHiq5LRFeyWZVgvLZ-82" value="PK" style="shape=partialRectangle;connectable=0;fillColor=none;top=0;left=0;bottom=0;right=0;fontStyle=1;overflow=hidden;" vertex="1" parent="5_3OHiq5LRFeyWZVgvLZ-81">
          <mxGeometry width="30" height="30" as="geometry" />
        </mxCell>
        <mxCell id="5_3OHiq5LRFeyWZVgvLZ-83" value="OrderID" style="shape=partialRectangle;connectable=0;fillColor=none;top=0;left=0;bottom=0;right=0;align=left;spacingLeft=6;fontStyle=5;overflow=hidden;" vertex="1" parent="5_3OHiq5LRFeyWZVgvLZ-81">
          <mxGeometry x="30" width="150" height="30" as="geometry" />
        </mxCell>
        <mxCell id="5_3OHiq5LRFeyWZVgvLZ-84" value="" style="shape=partialRectangle;collapsible=0;dropTarget=0;pointerEvents=0;fillColor=none;top=0;left=0;bottom=0;right=0;points=[[0,0.5],[1,0.5]];portConstraint=eastwest;" vertex="1" parent="5_3OHiq5LRFeyWZVgvLZ-80">
          <mxGeometry y="60" width="180" height="30" as="geometry" />
        </mxCell>
        <mxCell id="5_3OHiq5LRFeyWZVgvLZ-85" value="" style="shape=partialRectangle;connectable=0;fillColor=none;top=0;left=0;bottom=0;right=0;editable=1;overflow=hidden;" vertex="1" parent="5_3OHiq5LRFeyWZVgvLZ-84">
          <mxGeometry width="30" height="30" as="geometry" />
        </mxCell>
        <mxCell id="5_3OHiq5LRFeyWZVgvLZ-86" value="CostumerID" style="shape=partialRectangle;connectable=0;fillColor=none;top=0;left=0;bottom=0;right=0;align=left;spacingLeft=6;overflow=hidden;" vertex="1" parent="5_3OHiq5LRFeyWZVgvLZ-84">
          <mxGeometry x="30" width="150" height="30" as="geometry" />
        </mxCell>
        <mxCell id="5_3OHiq5LRFeyWZVgvLZ-87" value="" style="shape=partialRectangle;collapsible=0;dropTarget=0;pointerEvents=0;fillColor=none;top=0;left=0;bottom=0;right=0;points=[[0,0.5],[1,0.5]];portConstraint=eastwest;" vertex="1" parent="5_3OHiq5LRFeyWZVgvLZ-80">
          <mxGeometry y="90" width="180" height="30" as="geometry" />
        </mxCell>
        <mxCell id="5_3OHiq5LRFeyWZVgvLZ-88" value="" style="shape=partialRectangle;connectable=0;fillColor=none;top=0;left=0;bottom=0;right=0;editable=1;overflow=hidden;" vertex="1" parent="5_3OHiq5LRFeyWZVgvLZ-87">
          <mxGeometry width="30" height="30" as="geometry" />
        </mxCell>
        <mxCell id="5_3OHiq5LRFeyWZVgvLZ-89" value="OrderDate" style="shape=partialRectangle;connectable=0;fillColor=none;top=0;left=0;bottom=0;right=0;align=left;spacingLeft=6;overflow=hidden;" vertex="1" parent="5_3OHiq5LRFeyWZVgvLZ-87">
          <mxGeometry x="30" width="150" height="30" as="geometry" />
        </mxCell>
        <mxCell id="5_3OHiq5LRFeyWZVgvLZ-90" value="" style="shape=partialRectangle;collapsible=0;dropTarget=0;pointerEvents=0;fillColor=none;top=0;left=0;bottom=0;right=0;points=[[0,0.5],[1,0.5]];portConstraint=eastwest;" vertex="1" parent="5_3OHiq5LRFeyWZVgvLZ-80">
          <mxGeometry y="120" width="180" height="30" as="geometry" />
        </mxCell>
        <mxCell id="5_3OHiq5LRFeyWZVgvLZ-91" value="" style="shape=partialRectangle;connectable=0;fillColor=none;top=0;left=0;bottom=0;right=0;editable=1;overflow=hidden;" vertex="1" parent="5_3OHiq5LRFeyWZVgvLZ-90">
          <mxGeometry width="30" height="30" as="geometry" />
        </mxCell>
        <mxCell id="5_3OHiq5LRFeyWZVgvLZ-92" value="Bill_name" style="shape=partialRectangle;connectable=0;fillColor=none;top=0;left=0;bottom=0;right=0;align=left;spacingLeft=6;overflow=hidden;" vertex="1" parent="5_3OHiq5LRFeyWZVgvLZ-90">
          <mxGeometry x="30" width="150" height="30" as="geometry" />
        </mxCell>
        <mxCell id="5_3OHiq5LRFeyWZVgvLZ-110" value="VoucherUsed" style="shape=partialRectangle;connectable=0;fillColor=none;top=0;left=0;bottom=0;right=0;align=left;spacingLeft=6;overflow=hidden;" vertex="1" parent="5_3OHiq5LRFeyWZVgvLZ-117">
          <mxGeometry x="30" y="330" width="150" height="30" as="geometry" />
        </mxCell>
        <mxCell id="5_3OHiq5LRFeyWZVgvLZ-111" value="DiscountedPrice" style="shape=partialRectangle;connectable=0;fillColor=none;top=0;left=0;bottom=0;right=0;align=left;spacingLeft=6;overflow=hidden;" vertex="1" parent="5_3OHiq5LRFeyWZVgvLZ-117">
          <mxGeometry x="30" y="300" width="150" height="30" as="geometry" />
        </mxCell>
        <mxCell id="5_3OHiq5LRFeyWZVgvLZ-112" value="TotalPrice" style="shape=partialRectangle;connectable=0;fillColor=none;top=0;left=0;bottom=0;right=0;align=left;spacingLeft=6;overflow=hidden;" vertex="1" parent="5_3OHiq5LRFeyWZVgvLZ-117">
          <mxGeometry x="30" y="270" width="150" height="30" as="geometry" />
        </mxCell>
        <mxCell id="5_3OHiq5LRFeyWZVgvLZ-113" value="Delivery Address" style="shape=partialRectangle;connectable=0;fillColor=none;top=0;left=0;bottom=0;right=0;align=left;spacingLeft=6;overflow=hidden;" vertex="1" parent="5_3OHiq5LRFeyWZVgvLZ-117">
          <mxGeometry x="30" y="240" width="150" height="30" as="geometry" />
        </mxCell>
        <mxCell id="5_3OHiq5LRFeyWZVgvLZ-114" value="Delivery_mode" style="shape=partialRectangle;connectable=0;fillColor=none;top=0;left=0;bottom=0;right=0;align=left;spacingLeft=6;overflow=hidden;" vertex="1" parent="5_3OHiq5LRFeyWZVgvLZ-117">
          <mxGeometry x="30" y="210" width="150" height="30" as="geometry" />
        </mxCell>
        <mxCell id="5_3OHiq5LRFeyWZVgvLZ-115" value="Payment_mode" style="shape=partialRectangle;connectable=0;fillColor=none;top=0;left=0;bottom=0;right=0;align=left;spacingLeft=6;overflow=hidden;" vertex="1" parent="5_3OHiq5LRFeyWZVgvLZ-117">
          <mxGeometry x="30" y="180" width="150" height="30" as="geometry" />
        </mxCell>
        <mxCell id="5_3OHiq5LRFeyWZVgvLZ-116" value="Bill_address" style="shape=partialRectangle;connectable=0;fillColor=none;top=0;left=0;bottom=0;right=0;align=left;spacingLeft=6;overflow=hidden;" vertex="1" parent="5_3OHiq5LRFeyWZVgvLZ-117">
          <mxGeometry x="30" y="150" width="150" height="30" as="geometry" />
        </mxCell>
      </root>
    </mxGraphModel>
  </diagram>
</mxfile>
